<svg version="1.1" xmlns="http://www.w3.org/2000/svg" viewBox="0 0 143.32421875 146.4921875" width="143.32421875" height="146.4921875" class="excalidraw-svg"><!-- svg-source:excalidraw --><metadata></metadata><defs><style class="style-fonts">
      </style></defs><rect x="0" y="0" width="143.32421875" height="146.4921875" fill="#ffffff"></rect><g stroke-linecap="round" transform="translate(10 10) rotate(0 61.662109375 63.24609375)"><path d="M30.83 0 C56.27 0.79, 80.23 0.94, 92.49 0 M30.83 0 C55.14 -0.22, 77.45 0.94, 92.49 0 M92.49 0 C111.32 1.31, 124.27 10.69, 123.32 30.83 M92.49 0 C114.08 1.28, 124.64 10.42, 123.32 30.83 M123.32 30.83 C124.3 49.29, 124.27 70.19, 123.32 95.66 M123.32 30.83 C122.91 53.32, 122.82 76.78, 123.32 95.66 M123.32 95.66 C123.93 118.11, 113.11 127.32, 92.49 126.49 M123.32 95.66 C125.61 115.57, 111.93 128.41, 92.49 126.49 M92.49 126.49 C78.87 125.17, 64.34 125.81, 30.83 126.49 M92.49 126.49 C73.02 126.99, 52.49 126.45, 30.83 126.49 M30.83 126.49 C10.74 128.04, 0.6 116.16, 0 95.66 M30.83 126.49 C8.01 125.08, -1.18 116.5, 0 95.66 M0 95.66 C-1.15 80.51, -1.07 66.25, 0 30.83 M0 95.66 C0.06 71.95, 0.61 50.03, 0 30.83 M0 30.83 C-0.03 9.96, 11.44 0.84, 30.83 0 M0 30.83 C1.62 12.01, 8.47 -0.88, 30.83 0" stroke="#1e1e1e" stroke-width="2" fill="none"></path></g><g stroke-linecap="round" transform="translate(56.171875 61.4453125) rotate(0 18.095703125 16.08984375)"><path d="M17.99 0.32 C21.79 0.12, 27.31 1.59, 30.29 3.82 C33.27 6.05, 35.25 10.23, 35.86 13.68 C36.46 17.14, 35.8 21.71, 33.92 24.57 C32.04 27.43, 28.27 29.81, 24.56 30.85 C20.84 31.89, 15.29 32.02, 11.61 30.81 C7.94 29.59, 4.45 26.54, 2.5 23.55 C0.55 20.56, -0.78 16.13, -0.11 12.87 C0.56 9.61, 3.35 6.11, 6.53 3.99 C9.7 1.87, 16.74 0.77, 18.95 0.14 C21.15 -0.48, 19.79 0, 19.75 0.24 M19.02 0.74 C22.59 0.78, 26.96 2.77, 29.89 5.03 C32.81 7.29, 36.01 10.89, 36.58 14.3 C37.14 17.71, 35.49 22.55, 33.28 25.5 C31.07 28.46, 26.94 31.09, 23.32 32.03 C19.7 32.98, 15.1 32.53, 11.56 31.18 C8.01 29.82, 3.91 27.04, 2.04 23.9 C0.16 20.76, -0.47 15.65, 0.31 12.31 C1.1 8.97, 3.52 5.82, 6.76 3.85 C10 1.88, 17.62 1.11, 19.76 0.48 C21.89 -0.15, 19.71 -0.2, 19.57 0.06" stroke="#1e1e1e" stroke-width="2" fill="none"></path></g></svg>